# Blender v2.74 (sub 0) OBJ File: ''
# www.blender.org
o SketchUp.013_ID501
v 6.085443 0.739775 -3.294955
v 4.985418 0.739775 -3.185863
v 4.930872 0.739775 -3.294955
v 6.085443 0.739775 -3.185863
v 3.521604 0.739775 -3.185863
v 3.521604 0.739775 -3.294955
v 4.876326 0.739775 -3.185863
v 4.876326 0.739775 -2.558988
v 4.985418 0.739775 -2.558988
v 4.985418 0.739775 -3.185863
v 4.930872 0.739775 -3.294955
v 4.985418 0.739775 -2.558988
v 4.876326 0.739775 -2.558988
v 4.876326 0.739775 -3.185863
v 3.521604 0.739775 -3.185863
v 3.521604 0.739775 -3.294955
v 6.085443 0.739775 -3.185863
v 6.085443 0.739775 -3.294955
v 6.085443 0.739775 -3.294955
v 4.930872 0.000000 -3.294955
v 6.085443 0.000000 -3.294955
v 4.930872 0.739775 -3.294955
v 4.930872 0.739775 -3.294955
v 6.085443 0.739775 -3.294955
v 4.930872 0.000000 -3.294955
v 6.085443 0.000000 -3.294955
v 6.085443 0.739775 -3.294955
v 6.085443 0.000000 -3.185863
v 6.085443 0.739775 -3.185863
v 6.085443 0.000000 -3.294955
v 6.085443 0.000000 -3.294955
v 6.085443 0.739775 -3.294955
v 6.085443 0.000000 -3.185863
v 6.085443 0.739775 -3.185863
v 4.985418 0.739775 -3.185863
v 6.085443 0.000000 -3.185863
v 4.985418 0.000000 -3.185863
v 6.085443 0.739775 -3.185863
v 6.085443 0.739775 -3.185863
v 4.985418 0.739775 -3.185863
v 6.085443 0.000000 -3.185863
v 4.985418 0.000000 -3.185863
v 4.985418 0.739775 -3.185863
v 4.985418 0.000000 -2.558988
v 4.985418 0.739775 -2.558988
v 4.985418 0.000000 -3.185863
v 4.985418 0.000000 -3.185863
v 4.985418 0.739775 -3.185863
v 4.985418 0.000000 -2.558988
v 4.985418 0.739775 -2.558988
v 4.876326 0.739775 -2.558988
v 4.985418 0.000000 -2.558988
v 4.876326 0.000000 -2.558988
v 4.985418 0.739775 -2.558988
v 4.985418 0.739775 -2.558988
v 4.876326 0.739775 -2.558988
v 4.985418 0.000000 -2.558988
v 4.876326 0.000000 -2.558988
v 4.876326 0.000000 -3.185863
v 4.876326 0.739775 -2.558988
v 4.876326 0.000000 -2.558988
v 4.876326 0.739775 -3.185863
v 4.876326 0.739775 -3.185863
v 4.876326 0.000000 -3.185863
v 4.876326 0.739775 -2.558988
v 4.876326 0.000000 -2.558988
v 3.521604 0.739775 -3.185863
v 4.876326 0.000000 -3.185863
v 3.521604 0.000000 -3.185863
v 4.876326 0.739775 -3.185863
v 4.876326 0.739775 -3.185863
v 3.521604 0.739775 -3.185863
v 4.876326 0.000000 -3.185863
v 3.521604 0.000000 -3.185863
v 3.521604 0.000000 -3.294955
v 3.521604 0.739775 -3.185863
v 3.521604 0.000000 -3.185863
v 3.521604 0.739775 -3.294955
v 3.521604 0.739775 -3.294955
v 3.521604 0.000000 -3.294955
v 3.521604 0.739775 -3.185863
v 3.521604 0.000000 -3.185863
v 3.521604 0.000000 -3.294955
v 3.521604 0.739775 -3.294955
v 3.521604 0.739775 -3.294955
v 3.521604 0.000000 -3.294955
vt 0.000000 0.000000
vt -7.549089 4.824142
vt -7.466494 4.989333
vt -7.549089 3.874907
vt -7.383898 3.874907
vt -7.383898 4.824142
vt -5.332531 4.824142
vt -5.332531 4.989333
vt -9.214786 4.824142
vt -9.214786 4.989333
vt 7.466494 1.120192
vt 9.214786 1.120192
vt 7.466494 0.000000
vt 9.214786 0.000000
vt -4.989333 0.000000
vt -4.989333 1.120192
vt -4.824142 0.000000
vt -4.824142 1.120192
vt -9.214786 1.120192
vt -7.549089 1.120192
vt -9.214786 0.000000
vt -7.549089 0.000000
vt -3.874907 0.000000
vt -3.874907 1.120192
vt -7.383898 1.120192
vt -7.383898 0.000000
vt 4.824142 1.120192
vt 4.824142 0.000000
vt 3.874907 1.120192
vt 3.874907 0.000000
vt -5.332531 1.120192
vt -5.332531 0.000000
vt 4.989333 1.120192
vt 4.989333 0.000000
vt 5.332531 1.120192
vt 5.332531 0.000000
vn 0.000000 -1.000000 0.000000
vn 0.000000 0.000000 1.000000
vn -1.000000 0.000000 0.000000
vn 0.000000 0.000000 -1.000000
vn 1.000000 0.000000 0.000000
vn 0.000000 1.000000 0.000000
s 1
f 1/1/1 2/1/1 3/1/1
f 2/1/1 1/1/1 4/1/1
f 3/1/1 5/1/1 6/1/1
f 5/1/1 3/1/1 7/1/1
f 7/1/1 3/1/1 8/1/1
f 8/1/1 3/1/1 9/1/1
f 9/1/1 3/1/1 2/1/1
f 19/1/2 20/1/2 21/1/2
f 20/1/2 19/1/2 22/1/2
f 27/1/3 28/1/3 29/1/3
f 28/1/3 27/1/3 30/1/3
f 35/1/4 36/1/4 37/1/4
f 36/1/4 35/1/4 38/1/4
f 43/1/3 44/1/3 45/1/3
f 44/1/3 43/1/3 46/1/3
f 51/1/4 52/1/4 53/1/4
f 52/1/4 51/1/4 54/1/4
f 59/1/5 60/1/5 61/1/5
f 60/1/5 59/1/5 62/1/5
f 67/1/4 68/1/4 69/1/4
f 68/1/4 67/1/4 70/1/4
f 75/1/5 76/1/5 77/1/5
f 76/1/5 75/1/5 78/1/5
f 22/1/2 83/1/2 20/1/2
f 83/1/2 22/1/2 84/1/2
f 10/2/6 11/3/6 12/4/6
f 12/4/6 11/3/6 13/5/6
f 13/5/6 11/3/6 14/6/6
f 14/6/6 11/3/6 15/7/6
f 16/8/6 15/7/6 11/3/6
f 17/9/6 18/10/6 10/2/6
f 11/3/6 10/2/6 18/10/6
f 23/11/4 24/12/4 25/13/4
f 26/14/4 25/13/4 24/12/4
f 31/15/5 32/16/5 33/17/5
f 34/18/5 33/17/5 32/16/5
f 39/19/2 40/20/2 41/21/2
f 42/22/2 41/21/2 40/20/2
f 47/17/5 48/18/5 49/23/5
f 50/24/5 49/23/5 48/18/5
f 55/20/2 56/25/2 57/22/2
f 58/26/2 57/22/2 56/25/2
f 63/27/3 64/28/3 65/29/3
f 66/30/3 65/29/3 64/28/3
f 71/25/2 72/31/2 73/26/2
f 74/32/2 73/26/2 72/31/2
f 79/33/3 80/34/3 81/27/3
f 82/28/3 81/27/3 80/34/3
f 85/35/4 23/11/4 86/36/4
f 25/13/4 86/36/4 23/11/4
