# Blender v2.74 (sub 0) OBJ File: 'logs.blend1'
# www.blender.org
o Log1_Cylinder
v 0.559192 -0.262802 -0.717613
v -0.180678 4.567731 -0.870587
v 0.708759 -0.242541 -0.691736
v -0.031107 4.587962 -0.844711
v 0.796780 -0.233472 -0.566738
v 0.056925 4.596958 -0.719714
v 0.771694 -0.240907 -0.415841
v 0.031849 4.589450 -0.568819
v 0.648196 -0.260490 -0.327439
v -0.091645 4.569837 -0.480418
v 0.498629 -0.280751 -0.353316
v -0.241216 4.549606 -0.506294
v 0.410608 -0.289820 -0.478314
v -0.329248 4.540610 -0.631290
v 0.435694 -0.282385 -0.629211
v -0.304172 4.548118 -0.782185
v 0.435930 0.547618 -0.739498
v 0.336947 1.264700 -0.714826
v 0.234935 1.922544 -0.741129
v 0.099933 2.809896 -0.765258
v -0.053869 3.745657 -0.840642
v 0.096267 3.761611 -0.815025
v 0.247663 2.841487 -0.740182
v 0.383846 1.947217 -0.715306
v 0.485857 1.289373 -0.689003
v 0.585407 0.568511 -0.713609
v 0.185662 3.760281 -0.690654
v 0.331250 2.877910 -0.617118
v 0.470282 1.966940 -0.590439
v 0.572294 1.309096 -0.564136
v 0.673212 0.579107 -0.588581
v 0.161949 3.742448 -0.540384
v 0.301730 2.897828 -0.468156
v 0.443612 1.970159 -0.439673
v 0.545623 1.312314 -0.413370
v 0.647910 0.573199 -0.437655
v 0.039020 3.718557 -0.452242
v 0.176395 2.889575 -0.380555
v 0.319457 1.954988 -0.351325
v 0.421468 1.297144 -0.325022
v 0.524322 0.554249 -0.349241
v -0.111116 3.702604 -0.477859
v 0.028665 2.857984 -0.405631
v 0.170547 1.930315 -0.377147
v 0.272558 1.272470 -0.350845
v 0.374845 0.533355 -0.375130
v -0.200511 3.703933 -0.602230
v -0.054922 2.821562 -0.528694
v 0.084110 1.910592 -0.502015
v 0.186122 1.252748 -0.475712
v 0.287040 0.522759 -0.500157
v -0.176798 3.721767 -0.752499
v -0.025402 2.801643 -0.677657
v 0.110781 1.907373 -0.652781
v 0.212792 1.249529 -0.626478
v 0.312342 0.528667 -0.651083
v -0.177213 4.545269 -0.869769
v -0.027626 4.565383 -0.843899
v 0.060442 4.574097 -0.718920
v 0.035403 4.566307 -0.568042
v -0.088075 4.546576 -0.479648
v -0.237662 4.526464 -0.505517
v -0.325730 4.517749 -0.630496
v -0.300691 4.525539 -0.781374
v 0.549342 -0.198039 -0.719362
v 0.425837 -0.217572 -0.630959
v 0.400733 -0.224885 -0.480059
v 0.488737 -0.215693 -0.355059
v 0.638297 -0.195382 -0.329181
v 0.761802 -0.175849 -0.417584
v 0.786905 -0.168536 -0.568484
v 0.698902 -0.177728 -0.693484
v 0.400733 -0.224885 -0.480059
v 0.425837 -0.217572 -0.630959
v 0.488737 -0.215693 -0.355059
v 0.638297 -0.195382 -0.329181
v 0.549342 -0.198039 -0.719362
v 0.761802 -0.175849 -0.417584
v 0.698902 -0.177728 -0.693484
v 0.786905 -0.168536 -0.568484
vt 0.380727 0.915946
vt 0.380752 0.999886
vt 0.286330 0.999097
vt 0.287148 0.914605
vt 0.192142 0.997160
vt 0.193905 0.911369
vt 0.098255 0.995179
vt 0.100497 0.908101
vt 0.004556 0.994219
vt 0.756940 0.994194
vt 0.663242 0.995159
vt 0.660949 0.908083
vt 0.569357 0.997147
vt 0.567545 0.911357
vt 0.988822 0.098596
vt 0.827923 0.076337
vt 0.761277 0.098596
vt 0.475172 0.999090
vt 0.474304 0.914598
vt 0.380564 0.086282
vt 0.380567 0.168655
vt 0.288298 0.168508
vt 0.380585 0.316352
vt 0.284067 0.316818
vt 0.380609 0.453618
vt 0.286627 0.453856
vt 0.380651 0.638129
vt 0.284912 0.639553
vt 0.380702 0.832005
vt 0.287965 0.830112
vt 0.287288 0.085928
vt 0.195369 0.168115
vt 0.188585 0.318079
vt 0.192349 0.454380
vt 0.190144 0.642932
vt 0.195668 0.825578
vt 0.193916 0.085042
vt 0.101557 0.167668
vt 0.094256 0.319322
vt 0.097699 0.454908
vt 0.096157 0.646275
vt 0.102740 0.821022
vt 0.100283 0.084136
vt 0.007272 0.167379
vt 0.000114 0.319764
vt 0.003196 0.455174
vt 0.001938 0.647752
vt 0.008554 0.819181
vt 0.753856 0.167372
vt 0.659574 0.167663
vt 0.660840 0.084133
vt 0.761050 0.319752
vt 0.666910 0.319313
vt 0.758018 0.455157
vt 0.663517 0.454895
vt 0.759365 0.647731
vt 0.665148 0.646260
vt 0.752840 0.819159
vt 0.658656 0.821006
vt 0.565765 0.168112
vt 0.567209 0.085040
vt 0.572584 0.318073
vt 0.568869 0.454371
vt 0.571160 0.642922
vt 0.565732 0.825567
vt 0.472836 0.168506
vt 0.477102 0.316815
vt 0.474591 0.453851
vt 0.476391 0.639548
vt 0.473437 0.830107
vt 0.473839 0.085927
vt 0.006555 0.906700
vt 0.754890 0.906676
vt 0.568654 0.001969
vt 0.474841 0.003348
vt 0.099008 0.000604
vt 0.006145 0.083746
vt 0.192463 0.001969
vt 0.286277 0.003348
vt 0.380560 0.003909
vt 0.754974 0.083743
vt 0.662106 0.000604
vt 0.988822 0.130074
vt 0.761277 0.130074
vt 0.827923 0.152333
vt 0.922176 0.152333
vt 0.922176 0.076337
vt 0.005018 0.000114
vt 0.756093 0.000114
vt 0.827923 0.000114
vt 0.988822 0.022372
vt 0.988822 0.053851
vt 0.761277 0.022372
vt 0.922176 0.076110
vt 0.827923 0.076110
vt 0.761277 0.053851
vt 0.922176 0.000114
vn -0.213200 -0.068400 -0.974600
vn -0.260800 0.595900 -0.759500
vn 0.322800 0.681900 -0.656400
vn 0.530900 0.051300 -0.845800
vn 0.659600 0.732900 -0.166500
vn 0.965100 0.140700 -0.221000
vn 0.555600 0.719400 0.416900
vn 0.833000 0.146000 0.533600
vn 0.078100 0.650300 0.755600
vn -0.497000 0.565800 0.657900
vn -0.530700 -0.053000 0.845900
vn -0.839300 0.514200 0.176600
vn -0.965100 -0.140900 0.220900
vn -0.743700 0.526300 -0.412200
vn -0.832800 -0.147600 -0.533600
vn -0.214600 -0.058900 -0.974900
vn -0.219200 -0.028000 -0.975200
vn 0.522900 0.079000 -0.848700
vn -0.218300 -0.034300 -0.975200
vn 0.533200 0.075700 -0.842500
vn -0.213600 -0.065600 -0.974700
vn 0.530400 0.052900 -0.846100
vn -0.210500 -0.085600 -0.973800
vn 0.535700 0.038500 -0.843500
vn -0.209900 -0.089200 -0.973600
vn 0.527300 0.034500 -0.848900
vn 0.537800 0.059100 -0.841000
vn 0.963400 0.140500 -0.228300
vn 0.967000 0.140800 -0.212100
vn 0.964700 0.140900 -0.222300
vn 0.966500 0.141000 -0.214400
vn 0.963900 0.139400 -0.226800
vn 0.967700 0.141500 -0.208400
vn 0.840100 0.120300 0.528900
vn 0.833100 0.124100 0.538900
vn 0.833600 0.147000 0.532300
vn 0.827000 0.163200 0.537900
vn 0.830700 0.163900 0.531900
vn 0.829000 0.140500 0.541200
vn 0.219100 0.028900 0.975200
vn 0.218100 0.036000 0.975200
vn 0.213300 0.067300 0.974600
vn 0.209600 0.091400 0.973500
vn 0.209400 0.092200 0.973400
vn -0.531800 -0.079800 0.843100
vn -0.522600 -0.056700 0.850700
vn -0.522600 -0.073600 0.849400
vn -0.532100 -0.052200 0.845100
vn -0.528400 -0.034500 0.848300
vn -0.534300 -0.035300 0.844500
vn -0.966600 -0.141100 0.213600
vn -0.962200 -0.140000 0.233500
vn -0.963000 -0.140800 0.229800
vn -0.965400 -0.140800 0.219600
vn -0.963500 -0.140600 0.227500
vn -0.966200 -0.142200 0.215100
vn -0.834600 -0.119100 -0.537900
vn -0.840000 -0.124700 -0.528100
vn -0.832800 -0.145900 -0.534000
vn -0.832400 -0.161000 -0.530300
vn -0.826400 -0.162900 -0.539000
vn -0.838700 -0.141700 -0.525800
vn 0.213700 0.065200 0.974700
vn -0.537700 -0.059200 0.841000
vn -0.967700 -0.141500 0.208400
vn -0.659800 -0.733000 0.165300
vn -0.829000 -0.140700 -0.541200
vn -0.556600 -0.717900 -0.418200
vn 0.743100 -0.528700 0.410200
vn 0.838700 0.141600 0.525900
vn 0.214600 0.058700 0.974900
vn 0.838900 -0.514300 -0.177900
vn 0.962200 0.140000 -0.233500
vn 0.496900 -0.564100 -0.659400
vn 0.522500 0.056500 -0.850700
vn -0.214600 -0.059000 -0.974900
vn -0.078800 -0.648200 -0.757300
vn -0.322400 -0.684200 0.654200
vn 0.260700 -0.599400 0.756800
s 1
f 57/1/1 2/2/2 4/3/3
f 58/4/4 4/3/3 6/5/5
f 59/6/6 6/5/5 8/7/7
f 60/8/8 8/7/7 10/9/9
f 10/10/9 12/11/10 62/12/11
f 12/11/10 14/13/12 63/14/13
f 4/15/3 16/16/14 14/17/12
f 16/18/14 2/2/2 57/1/1
f 14/13/12 16/18/14 64/19/15
f 77/20/16 17/21/17 26/22/18
f 18/23/19 25/24/20 26/22/18
f 19/25/21 24/26/22 25/24/20
f 20/27/23 23/28/24 24/26/22
f 20/27/23 21/29/25 22/30/26
f 79/31/27 26/22/18 31/32/28
f 25/24/20 30/33/29 31/32/28
f 24/26/22 29/34/30 30/33/29
f 23/28/24 28/35/31 29/34/30
f 23/28/24 22/30/26 27/36/32
f 80/37/33 31/32/28 36/38/34
f 30/33/29 35/39/35 36/38/34
f 29/34/30 34/40/36 35/39/35
f 28/35/31 33/41/37 34/40/36
f 28/35/31 27/36/32 32/42/38
f 78/43/39 36/38/34 41/44/40
f 35/39/35 40/45/41 41/44/40
f 34/40/36 39/46/42 40/45/41
f 33/41/37 38/47/43 39/46/42
f 33/41/37 32/42/38 37/48/44
f 41/49/40 46/50/45 75/51/46
f 41/49/40 40/52/41 45/53/47
f 40/52/41 39/54/42 44/55/48
f 39/54/42 38/56/43 43/57/49
f 37/58/44 42/59/50 43/57/49
f 46/50/45 51/60/51 73/61/52
f 46/50/45 45/53/47 50/62/53
f 45/53/47 44/55/48 49/63/54
f 44/55/48 43/57/49 48/64/55
f 42/59/50 47/65/56 48/64/55
f 56/66/57 17/21/17 77/20/16
f 56/66/57 55/67/58 18/23/19
f 55/67/58 54/68/59 19/25/21
f 54/68/59 53/69/60 20/27/23
f 52/70/61 21/29/25 20/27/23
f 51/60/51 56/66/57 74/71/62
f 51/60/51 50/62/53 55/67/58
f 50/62/53 49/63/54 54/68/59
f 49/63/54 48/64/55 53/69/60
f 47/65/56 52/70/61 53/69/60
f 21/29/25 57/1/1 58/4/4
f 22/30/26 58/4/4 59/6/6
f 27/36/32 59/6/6 60/8/8
f 32/42/38 60/8/8 61/72/63
f 61/73/63 62/12/11 42/59/50
f 62/12/11 63/14/13 47/65/56
f 64/19/15 57/1/1 21/29/25
f 63/14/13 64/19/15 52/70/61
f 68/51/64 67/61/65 13/74/66
f 67/61/65 66/71/67 15/75/68
f 7/76/69 70/43/70 69/77/71
f 5/78/72 71/37/73 70/43/70
f 3/79/74 72/31/75 71/37/73
f 66/71/67 65/20/76 1/80/77
f 1/80/77 65/20/76 72/31/75
f 69/81/71 68/51/64 11/82/78
f 58/4/4 57/1/1 4/3/3
f 59/6/6 58/4/4 6/5/5
f 60/8/8 59/6/6 8/7/7
f 61/72/63 60/8/8 10/9/9
f 61/73/63 10/10/9 62/12/11
f 62/12/11 12/11/10 63/14/13
f 14/17/12 6/83/5 4/15/3
f 12/84/10 10/85/9 8/86/7
f 6/83/5 14/17/12 12/84/10
f 4/15/3 2/87/2 16/16/14
f 12/84/10 8/86/7 6/83/5
f 64/19/15 16/18/14 57/1/1
f 63/14/13 14/13/12 64/19/15
f 79/31/27 77/20/16 26/22/18
f 17/21/17 18/23/19 26/22/18
f 18/23/19 19/25/21 25/24/20
f 19/25/21 20/27/23 24/26/22
f 23/28/24 20/27/23 22/30/26
f 80/37/33 79/31/27 31/32/28
f 26/22/18 25/24/20 31/32/28
f 25/24/20 24/26/22 30/33/29
f 24/26/22 23/28/24 29/34/30
f 28/35/31 23/28/24 27/36/32
f 78/43/39 80/37/33 36/38/34
f 31/32/28 30/33/29 36/38/34
f 30/33/29 29/34/30 35/39/35
f 29/34/30 28/35/31 34/40/36
f 33/41/37 28/35/31 32/42/38
f 76/77/71 78/43/39 41/44/40
f 36/38/34 35/39/35 41/44/40
f 35/39/35 34/40/36 40/45/41
f 34/40/36 33/41/37 39/46/42
f 38/47/43 33/41/37 37/48/44
f 76/81/71 41/49/40 75/51/46
f 46/50/45 41/49/40 45/53/47
f 45/53/47 40/52/41 44/55/48
f 44/55/48 39/54/42 43/57/49
f 38/56/43 37/58/44 43/57/49
f 75/51/46 46/50/45 73/61/52
f 51/60/51 46/50/45 50/62/53
f 50/62/53 45/53/47 49/63/54
f 49/63/54 44/55/48 48/64/55
f 43/57/49 42/59/50 48/64/55
f 74/71/62 56/66/57 77/20/16
f 17/21/17 56/66/57 18/23/19
f 18/23/19 55/67/58 19/25/21
f 19/25/21 54/68/59 20/27/23
f 53/69/60 52/70/61 20/27/23
f 73/61/52 51/60/51 74/71/62
f 56/66/57 51/60/51 55/67/58
f 55/67/58 50/62/53 54/68/59
f 54/68/59 49/63/54 53/69/60
f 48/64/55 47/65/56 53/69/60
f 22/30/26 21/29/25 58/4/4
f 27/36/32 22/30/26 59/6/6
f 32/42/38 27/36/32 60/8/8
f 37/48/44 32/42/38 61/72/63
f 37/58/44 61/73/63 42/59/50
f 42/59/50 62/12/11 47/65/56
f 52/70/61 64/19/15 21/29/25
f 47/65/56 63/14/13 52/70/61
f 11/82/78 68/51/64 13/74/66
f 13/74/66 67/61/65 15/75/68
f 9/88/79 7/76/69 69/77/71
f 7/76/69 5/78/72 70/43/70
f 5/78/72 3/79/74 71/37/73
f 15/75/68 66/71/67 1/80/77
f 3/79/74 1/80/77 72/31/75
f 9/89/79 69/81/71 11/82/78
f 15/90/68 3/91/74 5/92/72
f 5/92/72 13/93/66 15/90/68
f 7/94/69 9/95/79 11/96/78
f 13/93/66 5/92/72 7/94/69
f 15/90/68 1/97/77 3/91/74
f 7/94/69 11/96/78 13/93/66
